Coordinates
version=1
nRows=27
nColumns=12
inDegrees=yes

Units are S.I. units (second, meters, Newtons, ...)
Angles are in degrees

endheader
time	SC_y	SC_z	SC_x	AC_y	AC_z	AC_x	GH_y	GH_z	GH_yy	EL_x	PS_y
       0.0              -21.81           27.4          72.63          62.54         -1.939         -15.13          90.63         -4.199         -168.3          44.38          21.62
   0.03645              -21.81           27.4          72.62          62.54         -1.941         -15.13           90.6           -4.2         -168.3           44.4          21.63
    0.0729              -21.81           27.4          72.62          62.53         -1.943         -15.12          90.57         -4.202         -168.3          44.41          21.63
    0.1094              -21.81           27.4          72.61          62.53         -1.945         -15.12          90.54         -4.204         -168.3          44.42          21.63
    0.1458              -21.81           27.4          72.61          62.53         -1.947         -15.11          90.51         -4.207         -168.3          44.44          21.63
    0.1823              -21.81           27.4           72.6          62.53         -1.949         -15.11          90.48         -4.209         -168.3          44.45          21.64
    0.2187              -21.81           27.4           72.6          62.53         -1.952          -15.1          90.44         -4.211         -168.3          44.47          21.64
    0.2552              -21.81           27.4          72.59          62.53         -1.954         -15.09           90.4         -4.214         -168.2          44.49          21.65
    0.2916              -21.81           27.4          72.58          62.53         -1.957         -15.09          90.36         -4.217         -168.2          44.51          21.65
    0.3281              -21.81           27.4          72.58          62.53          -1.96         -15.08          90.32          -4.22         -168.2          44.53          21.66
    0.3645              -21.81           27.4          72.57          62.53         -1.964         -15.07          90.27         -4.223         -168.2          44.55          21.66
     0.401               -21.8           27.4          72.56          62.53         -1.967         -15.06          90.22         -4.227         -168.1          44.57          21.67
    0.4374               -21.8           27.4          72.55          62.53         -1.971         -15.05          90.17         -4.231         -168.1           44.6          21.67
    0.4739               -21.8           27.4          72.54          62.53         -1.975         -15.04          90.11         -4.235         -168.1          44.63          21.68
    0.5103               -21.8           27.4          72.53          62.53          -1.98         -15.03          90.04         -4.239         -168.1          44.66          21.69
    0.5468               -21.8           27.4          72.51          62.53         -1.984         -15.02          89.97         -4.244         -168.0          44.69          21.69
    0.5832               -21.8           27.4           72.5          62.52          -1.99         -15.01           89.9         -4.249         -168.0          44.72           21.7
    0.6197               -21.8           27.4          72.49          62.52         -1.995         -14.99          89.82         -4.255         -167.9          44.76          21.71
    0.6561              -21.79           27.4          72.47          62.52         -2.002         -14.98          89.73         -4.261         -167.9           44.8          21.72
    0.6926              -21.79           27.4          72.45          62.52         -2.009         -14.96          89.63         -4.268         -167.8          44.85          21.73
     0.729              -21.79           27.4          72.43          62.52         -2.016         -14.94          89.52         -4.276         -167.8           44.9          21.75
    0.7655              -21.79           27.4          72.41          62.52         -2.024         -14.92           89.4         -4.284         -167.7          44.95          21.76
    0.8019              -21.78           27.4          72.39          62.51         -2.034          -14.9          89.27         -4.293         -167.7          45.01          21.77
    0.8384              -21.78           27.4          72.36          62.51         -2.044         -14.87          89.12         -4.303         -167.6          45.08          21.79
    0.8748              -21.78           27.4          72.34          62.51         -2.055         -14.84          88.96         -4.314         -167.5          45.16          21.81
    0.9113              -21.78           27.4           72.3          62.51         -2.068         -14.81          88.78         -4.327         -167.4          45.24          21.83
    0.9477              -21.77           27.4          72.27           62.5         -2.082         -14.78          88.58         -4.341         -167.3          45.33          21.85
